<svg width="1440" height="1024" viewBox="0 0 1440 1024" fill="none" xmlns="http://www.w3.org/2000/svg">
<g clip-path="url(#clip0_167_223)">
<rect width="1440" height="1024" fill="url(#paint0_linear_167_223)"/>
<rect width="1440" height="1024" fill="black" fill-opacity="0.6"/>
<g opacity="0.3" filter="url(#filter0_f_167_223)">
<ellipse cx="1372.5" cy="841" rx="248.5" ry="242" fill="url(#paint1_linear_167_223)"/>
</g>
<g opacity="0.3" filter="url(#filter1_f_167_223)">
<path d="M1356.28 486.197C1268.31 385.575 1280.76 230.777 1384.09 140.447C1487.41 50.1165 1598.77 107.97 1686.73 208.592C1774.7 309.214 1805.97 414.502 1702.64 504.832C1599.32 595.162 1444.25 586.819 1356.28 486.197Z" fill="url(#paint2_linear_167_223)"/>
</g>
<g opacity="0.3" filter="url(#filter2_f_167_223)">
<path d="M254.977 -95.986C372.048 -240.692 587.412 -260.545 736.005 -140.329C884.598 -20.1128 831.789 146.478 714.717 291.185C597.645 435.891 460.644 503.915 312.051 383.699C163.458 263.483 137.905 48.7204 254.977 -95.986Z" fill="url(#paint3_linear_167_223)"/>
</g>
<g opacity="0.3" filter="url(#filter3_f_167_223)">
<path d="M1478.05 -193.52C1594.4 -127.749 1633.97 22.4225 1566.43 141.898C1498.89 261.373 1374.66 243.706 1258.31 177.935C1262.43 4.82374 1077.55 23.1961 1145.09 -96.279C1212.63 -215.754 1361.7 -259.29 1478.05 -193.52Z" fill="url(#paint4_linear_167_223)"/>
</g>
<g opacity="0.3" filter="url(#filter4_f_167_223)">
<path d="M742.821 476.674C736.114 634.266 759.97 800.903 611.868 878.717C463.766 956.531 348.139 856.381 272.36 712.153C196.581 567.925 189.348 434.234 337.449 356.42C485.551 278.606 602.333 421.577 742.821 476.674Z" fill="url(#paint5_linear_167_223)"/>
</g>
<g opacity="0.3" filter="url(#filter5_f_167_223)">
<path d="M1048.24 114.367C895.338 75.6239 727.34 64.9523 681.406 -95.9176C635.471 -256.788 757.12 -349.53 913.783 -394.263C1070.45 -438.996 1202.8 -418.78 1248.73 -257.91C1294.67 -97.0403 1130.86 -11.9104 1048.24 114.367Z" fill="url(#paint6_linear_167_223)"/>
</g>
<g opacity="0.3" filter="url(#filter6_f_167_223)">
<path d="M1363 1106.73C1363 1225.07 1264.5 1321 1143 1321C1021.49 1321 922.995 1225.07 922.995 1106.73C1104.04 964.613 922.995 872.528 1143 892.45C1264.5 892.45 1363 988.385 1363 1106.73Z" fill="url(#paint7_linear_167_223)"/>
<path d="M838.004 984.978C838.004 1103.32 739.506 1199.25 618.002 1199.25C496.498 1199.25 398 1103.32 398 984.978C579.048 842.866 398 750.781 618.002 770.703C739.506 770.703 838.004 866.637 838.004 984.978Z" fill="url(#paint8_linear_167_223)"/>
</g>
<g opacity="0.3" filter="url(#filter7_f_167_223)">
<path d="M914.305 861.234C1055.81 930.928 1217.91 976.304 1229.39 1143.21C1240.86 1310.11 1102.59 1375.53 940.046 1386.71C777.506 1397.88 652.252 1350.58 640.777 1183.68C629.302 1016.77 807.229 967.568 914.305 861.234Z" fill="url(#paint9_linear_167_223)"/>
</g>
</g>
<defs>
<filter id="filter0_f_167_223" x="1044" y="519" width="657" height="644" filterUnits="userSpaceOnUse" color-interpolation-filters="sRGB">
<feFlood flood-opacity="0" result="BackgroundImageFix"/>
<feBlend mode="normal" in="SourceGraphic" in2="BackgroundImageFix" result="shape"/>
<feGaussianBlur stdDeviation="40" result="effect1_foregroundBlur_167_223"/>
</filter>
<filter id="filter1_f_167_223" x="1217.65" y="15.5362" width="629.842" height="631.942" filterUnits="userSpaceOnUse" color-interpolation-filters="sRGB">
<feFlood flood-opacity="0" result="BackgroundImageFix"/>
<feBlend mode="normal" in="SourceGraphic" in2="BackgroundImageFix" result="shape"/>
<feGaussianBlur stdDeviation="40" result="effect1_foregroundBlur_167_223"/>
</filter>
<filter id="filter2_f_167_223" x="101.49" y="-298.958" width="805.39" height="824.512" filterUnits="userSpaceOnUse" color-interpolation-filters="sRGB">
<feFlood flood-opacity="0" result="BackgroundImageFix"/>
<feBlend mode="normal" in="SourceGraphic" in2="BackgroundImageFix" result="shape"/>
<feGaussianBlur stdDeviation="40" result="effect1_foregroundBlur_167_223"/>
</filter>
<filter id="filter3_f_167_223" x="1050.23" y="-304.178" width="629.156" height="613.734" filterUnits="userSpaceOnUse" color-interpolation-filters="sRGB">
<feFlood flood-opacity="0" result="BackgroundImageFix"/>
<feBlend mode="normal" in="SourceGraphic" in2="BackgroundImageFix" result="shape"/>
<feGaussianBlur stdDeviation="40" result="effect1_foregroundBlur_167_223"/>
</filter>
<filter id="filter4_f_167_223" x="139.523" y="253.741" width="683.297" height="732.101" filterUnits="userSpaceOnUse" color-interpolation-filters="sRGB">
<feFlood flood-opacity="0" result="BackgroundImageFix"/>
<feBlend mode="normal" in="SourceGraphic" in2="BackgroundImageFix" result="shape"/>
<feGaussianBlur stdDeviation="40" result="effect1_foregroundBlur_167_223"/>
</filter>
<filter id="filter5_f_167_223" x="591.59" y="-494.952" width="745.12" height="689.319" filterUnits="userSpaceOnUse" color-interpolation-filters="sRGB">
<feFlood flood-opacity="0" result="BackgroundImageFix"/>
<feBlend mode="normal" in="SourceGraphic" in2="BackgroundImageFix" result="shape"/>
<feGaussianBlur stdDeviation="40" result="effect1_foregroundBlur_167_223"/>
</filter>
<filter id="filter6_f_167_223" x="318" y="688" width="1125" height="713" filterUnits="userSpaceOnUse" color-interpolation-filters="sRGB">
<feFlood flood-opacity="0" result="BackgroundImageFix"/>
<feBlend mode="normal" in="SourceGraphic" in2="BackgroundImageFix" result="shape"/>
<feGaussianBlur stdDeviation="40" result="effect1_foregroundBlur_167_223"/>
</filter>
<filter id="filter7_f_167_223" x="560.249" y="781.234" width="749.806" height="687.024" filterUnits="userSpaceOnUse" color-interpolation-filters="sRGB">
<feFlood flood-opacity="0" result="BackgroundImageFix"/>
<feBlend mode="normal" in="SourceGraphic" in2="BackgroundImageFix" result="shape"/>
<feGaussianBlur stdDeviation="40" result="effect1_foregroundBlur_167_223"/>
</filter>
<linearGradient id="paint0_linear_167_223" x1="15.8823" y1="81.92" x2="1377.07" y2="1019.6" gradientUnits="userSpaceOnUse">
<stop stop-color="#683171"/>
<stop offset="0.506979" stop-color="#553882"/>
<stop offset="1" stop-color="#4591A1"/>
</linearGradient>
<linearGradient id="paint1_linear_167_223" x1="1129.48" y1="637.72" x2="1682.33" y2="915.816" gradientUnits="userSpaceOnUse">
<stop stop-color="#683171"/>
<stop offset="0.506979" stop-color="#553882"/>
<stop offset="1" stop-color="#4591A1"/>
</linearGradient>
<linearGradient id="paint2_linear_167_223" x1="1811.35" y1="358.367" x2="1285.89" y2="524.738" gradientUnits="userSpaceOnUse">
<stop stop-color="#683171"/>
<stop offset="0.506979" stop-color="#553882"/>
<stop offset="1" stop-color="#4591A1"/>
</linearGradient>
<linearGradient id="paint3_linear_167_223" x1="538.949" y1="497.905" x2="185.299" y2="-183.371" gradientUnits="userSpaceOnUse">
<stop stop-color="#683171"/>
<stop offset="0.506979" stop-color="#553882"/>
<stop offset="1" stop-color="#4591A1"/>
</linearGradient>
<linearGradient id="paint4_linear_167_223" x1="1091.09" y1="77.9406" x2="1531.68" y2="-253.217" gradientUnits="userSpaceOnUse">
<stop stop-color="#683171"/>
<stop offset="0.506979" stop-color="#553882"/>
<stop offset="1" stop-color="#4591A1"/>
</linearGradient>
<linearGradient id="paint5_linear_167_223" x1="167.059" y1="499.263" x2="837.198" y2="450.926" gradientUnits="userSpaceOnUse">
<stop stop-color="#683171"/>
<stop offset="0.506979" stop-color="#553882"/>
<stop offset="1" stop-color="#4591A1"/>
</linearGradient>
<linearGradient id="paint6_linear_167_223" x1="1143.69" y1="-453.877" x2="1054.18" y2="212.014" gradientUnits="userSpaceOnUse">
<stop stop-color="#683171"/>
<stop offset="0.506979" stop-color="#553882"/>
<stop offset="1" stop-color="#4591A1"/>
</linearGradient>
<linearGradient id="paint7_linear_167_223" x1="408.643" y1="812.24" x2="1185.8" y2="1476.58" gradientUnits="userSpaceOnUse">
<stop stop-color="#683171"/>
<stop offset="0.506979" stop-color="#553882"/>
<stop offset="0.746511" stop-color="#4591A1"/>
</linearGradient>
<linearGradient id="paint8_linear_167_223" x1="408.643" y1="812.24" x2="1185.8" y2="1476.58" gradientUnits="userSpaceOnUse">
<stop stop-color="#683171"/>
<stop offset="0.506979" stop-color="#553882"/>
<stop offset="0.746511" stop-color="#4591A1"/>
</linearGradient>
<linearGradient id="paint9_linear_167_223" x1="702.769" y1="1397.2" x2="928.806" y2="764.488" gradientUnits="userSpaceOnUse">
<stop stop-color="#683171"/>
<stop offset="0.506979" stop-color="#553882"/>
<stop offset="1" stop-color="#4591A1"/>
</linearGradient>
<clipPath id="clip0_167_223">
<rect width="1440" height="1024" fill="white"/>
</clipPath>
</defs>
</svg>
