<svg width="330" height="61" viewBox="0 0 330 61" fill="none" xmlns="http://www.w3.org/2000/svg">
<path d="M12.0909 47H0L15.7045 0.454544H30.6818L46.3864 47H34.2955L23.3636 12.1818H23L12.0909 47ZM10.4773 28.6818H35.75V37.2273H10.4773V28.6818ZM73.9205 31.9318V12.0909H85.0114V47H74.4205V40.5H74.0568C73.2841 42.6364 71.9659 44.3333 70.1023 45.5909C68.2538 46.8333 66.0189 47.4545 63.3977 47.4545C61.0189 47.4545 58.928 46.9091 57.125 45.8182C55.322 44.7273 53.9205 43.2045 52.9205 41.25C51.9205 39.2803 51.4129 36.9773 51.3977 34.3409V12.0909H62.5114V32.1591C62.5265 34.053 63.0265 35.5455 64.0114 36.6364C64.9962 37.7273 66.3371 38.2727 68.0341 38.2727C69.1402 38.2727 70.1326 38.0303 71.0114 37.5455C71.9053 37.0455 72.6098 36.3258 73.125 35.3864C73.6553 34.4318 73.9205 33.2803 73.9205 31.9318ZM111.79 12.0909V20.2727H89.767V12.0909H111.79ZM94.3807 3.72727H105.494V36.0227C105.494 36.7045 105.6 37.2576 105.812 37.6818C106.04 38.0909 106.366 38.3864 106.79 38.5682C107.214 38.7348 107.722 38.8182 108.312 38.8182C108.737 38.8182 109.184 38.7803 109.653 38.7045C110.138 38.6136 110.502 38.5379 110.744 38.4773L112.426 46.5C111.896 46.6515 111.146 46.8409 110.176 47.0682C109.222 47.2955 108.078 47.4394 106.744 47.5C104.138 47.6212 101.903 47.3182 100.04 46.5909C98.1913 45.8485 96.7746 44.697 95.7898 43.1364C94.8201 41.5758 94.3504 39.6136 94.3807 37.25V3.72727ZM133.381 47.6591C129.714 47.6591 126.563 46.9091 123.926 45.4091C121.305 43.8939 119.282 41.7879 117.858 39.0909C116.449 36.3788 115.744 33.2348 115.744 29.6591C115.744 26.0682 116.449 22.9242 117.858 20.2273C119.282 17.5152 121.305 15.4091 123.926 13.9091C126.563 12.3939 129.714 11.6364 133.381 11.6364C137.047 11.6364 140.191 12.3939 142.812 13.9091C145.449 15.4091 147.472 17.5152 148.881 20.2273C150.305 22.9242 151.017 26.0682 151.017 29.6591C151.017 33.2348 150.305 36.3788 148.881 39.0909C147.472 41.7879 145.449 43.8939 142.812 45.4091C140.191 46.9091 137.047 47.6591 133.381 47.6591ZM133.449 39.2727C134.782 39.2727 135.911 38.8636 136.835 38.0455C137.759 37.2273 138.464 36.0909 138.949 34.6364C139.449 33.1818 139.699 31.5 139.699 29.5909C139.699 27.6515 139.449 25.9545 138.949 24.5C138.464 23.0455 137.759 21.9091 136.835 21.0909C135.911 20.2727 134.782 19.8636 133.449 19.8636C132.07 19.8636 130.903 20.2727 129.949 21.0909C129.009 21.9091 128.29 23.0455 127.79 24.5C127.305 25.9545 127.062 27.6515 127.062 29.5909C127.062 31.5 127.305 33.1818 127.79 34.6364C128.29 36.0909 129.009 37.2273 129.949 38.0455C130.903 38.8636 132.07 39.2727 133.449 39.2727ZM167.824 27.0909V47H156.71V12.0909H167.278V18.5H167.665C168.438 16.3636 169.756 14.6894 171.619 13.4773C173.483 12.25 175.703 11.6364 178.278 11.6364C180.733 11.6364 182.862 12.1894 184.665 13.2955C186.483 14.3864 187.892 15.9167 188.892 17.8864C189.907 19.8409 190.407 22.1288 190.392 24.75V47H179.278V26.9318C179.294 24.9924 178.801 23.4773 177.801 22.3864C176.816 21.2955 175.445 20.75 173.688 20.75C172.521 20.75 171.491 21.0076 170.597 21.5227C169.718 22.0227 169.036 22.7424 168.551 23.6818C168.081 24.6212 167.839 25.7576 167.824 27.0909ZM213.568 47.6591C209.902 47.6591 206.75 46.9091 204.114 45.4091C201.492 43.8939 199.47 41.7879 198.045 39.0909C196.636 36.3788 195.932 33.2348 195.932 29.6591C195.932 26.0682 196.636 22.9242 198.045 20.2273C199.47 17.5152 201.492 15.4091 204.114 13.9091C206.75 12.3939 209.902 11.6364 213.568 11.6364C217.235 11.6364 220.379 12.3939 223 13.9091C225.636 15.4091 227.659 17.5152 229.068 20.2273C230.492 22.9242 231.205 26.0682 231.205 29.6591C231.205 33.2348 230.492 36.3788 229.068 39.0909C227.659 41.7879 225.636 43.8939 223 45.4091C220.379 46.9091 217.235 47.6591 213.568 47.6591ZM213.636 39.2727C214.97 39.2727 216.098 38.8636 217.023 38.0455C217.947 37.2273 218.652 36.0909 219.136 34.6364C219.636 33.1818 219.886 31.5 219.886 29.5909C219.886 27.6515 219.636 25.9545 219.136 24.5C218.652 23.0455 217.947 21.9091 217.023 21.0909C216.098 20.2727 214.97 19.8636 213.636 19.8636C212.258 19.8636 211.091 20.2727 210.136 21.0909C209.197 21.9091 208.477 23.0455 207.977 24.5C207.492 25.9545 207.25 27.6515 207.25 29.5909C207.25 31.5 207.492 33.1818 207.977 34.6364C208.477 36.0909 209.197 37.2273 210.136 38.0455C211.091 38.8636 212.258 39.2727 213.636 39.2727Z" fill="black"/>
<path d="M236.898 0.454544H250.83L262.648 29.2727H263.193L275.011 0.454544H288.943V47H277.989V18.4091H277.602L266.42 46.7045H259.42L248.239 18.25H247.852V47H236.898V0.454544ZM302.756 60.0909C301.422 60.0909 300.165 59.9848 298.983 59.7727C297.801 59.5758 296.786 59.3106 295.938 58.9773L298.392 50.9091C299.483 51.2727 300.468 51.4848 301.347 51.5455C302.241 51.6061 303.006 51.4621 303.642 51.1136C304.294 50.7803 304.794 50.1818 305.142 49.3182L305.574 48.2727L293.165 12.0909H304.801L311.233 37H311.597L318.119 12.0909H329.824L316.665 50.3409C316.028 52.25 315.127 53.9318 313.96 55.3864C312.809 56.8561 311.316 58.0076 309.483 58.8409C307.665 59.6742 305.422 60.0909 302.756 60.0909Z" fill="url(#paint0_linear_167_255)"/>
<defs>
<linearGradient id="paint0_linear_167_255" x1="2.17279" y1="-8.84" x2="86.7468" y2="170.331" gradientUnits="userSpaceOnUse">
<stop stop-color="#683171"/>
<stop offset="0.506979" stop-color="#553882"/>
<stop offset="1" stop-color="#4591A1"/>
</linearGradient>
</defs>
</svg>
