<svg width="120" height="120" viewBox="0 0 120 120" fill="none" xmlns="http://www.w3.org/2000/svg">
<path d="M112.031 80.4492L112.02 80.4375L112.008 80.4258C106.84 69.4922 98.8359 63.8672 88.1836 63.8672C77.5313 63.8672 69.5273 69.5039 64.3477 80.4258V80.4375C63.7148 81.7852 63.7148 83.3555 64.3477 84.7031C69.5273 95.625 77.5313 101.25 88.1836 101.25C98.8359 101.25 106.84 95.6133 112.02 84.6914C112.652 83.3438 112.652 81.7852 112.031 80.4492ZM88.1836 93.75C80.9063 93.75 75.5977 90.2344 71.6484 82.5586C75.5859 74.8828 80.9063 71.3672 88.1836 71.3672C95.4609 71.3672 100.77 74.8828 104.719 82.5586C100.781 90.2344 95.4609 93.75 88.1836 93.75Z" fill="black"/>
<path d="M81.6797 82.6172C81.6797 84.3577 82.3711 86.0269 83.6018 87.2576C84.8325 88.4883 86.5017 89.1797 88.2422 89.1797C89.9827 89.1797 91.6519 88.4883 92.8826 87.2576C94.1133 86.0269 94.8047 84.3577 94.8047 82.6172C94.8047 80.8767 94.1133 79.2075 92.8826 77.9768C91.6519 76.7461 89.9827 76.0547 88.2422 76.0547C86.5017 76.0547 84.8325 76.7461 83.6018 77.9768C82.3711 79.2075 81.6797 80.8767 81.6797 82.6172ZM15.9375 27.1875H98.4375V56.8359H106.875V22.5C106.875 20.4258 105.199 18.75 103.125 18.75H11.25C9.17578 18.75 7.5 20.4258 7.5 22.5V83.4375C7.5 85.5117 9.17578 87.1875 11.25 87.1875H52.5V78.75H15.9375V27.1875Z" fill="black"/>
<path d="M84.9492 39.6211L80.6367 35.3086C80.2734 34.9453 79.6758 34.9453 79.3125 35.3086L57.7734 56.8711L47.6836 46.7695C47.3203 46.4063 46.7227 46.4063 46.3594 46.7695L29.4492 63.6797C29.0859 64.043 29.0859 64.6406 29.4492 65.0039L33.7617 69.3164C34.125 69.6797 34.7227 69.6797 35.0859 69.3164L47.0156 57.3867L57.1055 67.4883C57.4688 67.8516 58.0664 67.8516 58.4297 67.4883L84.9492 40.9453C85.3242 40.582 85.3242 39.9844 84.9492 39.6211Z" fill="black"/>
</svg>
