<svg width="120" height="120" viewBox="0 0 151 151" fill="none" xmlns="http://www.w3.org/2000/svg">
<path d="M140.539 101.062L140.524 101.047L140.51 101.032C134.05 87.3652 124.045 80.334 110.729 80.334C97.4141 80.334 87.4092 87.3799 80.9346 101.032V101.047C80.1436 102.731 80.1436 104.694 80.9346 106.379C87.4092 120.031 97.4141 127.062 110.729 127.062C124.045 127.062 134.05 120.017 140.524 106.364C141.315 104.68 141.315 102.731 140.539 101.062ZM110.729 117.688C101.633 117.688 94.9971 113.293 90.0606 103.698C94.9824 94.1035 101.633 89.709 110.729 89.709C119.826 89.709 126.462 94.1035 131.398 103.698C126.477 113.293 119.826 117.688 110.729 117.688Z" fill="url(#paint0_linear_114_290)"/>
<path d="M102.6 103.771C102.6 105.947 103.464 108.034 105.002 109.572C106.541 111.11 108.627 111.975 110.803 111.975C112.978 111.975 115.065 111.11 116.603 109.572C118.142 108.034 119.006 105.947 119.006 103.771C119.006 101.596 118.142 99.5094 116.603 97.971C115.065 96.4326 112.978 95.5684 110.803 95.5684C108.627 95.5684 106.541 96.4326 105.002 97.971C103.464 99.5094 102.6 101.596 102.6 103.771ZM20.4219 34.4844H123.547V71.5449H134.094V28.625C134.094 26.0322 131.999 23.9375 129.406 23.9375H14.5625C11.9697 23.9375 9.875 26.0322 9.875 28.625V104.797C9.875 107.39 11.9697 109.484 14.5625 109.484H66.125V98.9375H20.4219V34.4844Z" fill="url(#paint1_linear_114_290)"/>
<path d="M106.687 50.0264L101.296 44.6357C100.842 44.1816 100.095 44.1816 99.6406 44.6357L72.7168 71.5889L60.1045 58.9619C59.6504 58.5078 58.9033 58.5078 58.4492 58.9619L37.3115 80.0996C36.8574 80.5537 36.8574 81.3008 37.3115 81.7549L42.7021 87.1455C43.1563 87.5996 43.9033 87.5996 44.3574 87.1455L59.2695 72.2334L71.8818 84.8604C72.3359 85.3145 73.083 85.3145 73.5371 84.8604L106.687 51.6816C107.155 51.2275 107.155 50.4805 106.687 50.0264Z" fill="url(#paint2_linear_114_290)"/>
<defs>
<linearGradient id="paint0_linear_114_290" x1="81.0117" y1="84.0723" x2="141.266" y2="122.463" gradientUnits="userSpaceOnUse">
<stop stop-color="#683171"/>
<stop offset="0.506979" stop-color="#553882"/>
<stop offset="1" stop-color="#4591A1"/>
</linearGradient>
<linearGradient id="paint1_linear_114_290" x1="11.2451" y1="30.9805" x2="128.411" y2="111.964" gradientUnits="userSpaceOnUse">
<stop stop-color="#683171"/>
<stop offset="0.506979" stop-color="#553882"/>
<stop offset="1" stop-color="#4591A1"/>
</linearGradient>
<linearGradient id="paint2_linear_114_290" x1="37.7437" y1="47.7504" x2="97.603" y2="95.32" gradientUnits="userSpaceOnUse">
<stop stop-color="#683171"/>
<stop offset="0.506979" stop-color="#553882"/>
<stop offset="1" stop-color="#4591A1"/>
</linearGradient>
</defs>
</svg>
